# xmcd CD database file
#
# Track frame offsets:
#	183
#	13150
#	24873
#	36360
#	46690
#	58095
#	70013
#	82778
#	95900
#	109223
#	124895
#	142125
#	153980
#	166725
#	178740
#	193265
#	202975
#	215515
#
# Disc length: 3074 seconds
#
# Revision: 3
# Processed by: cddbd v1.5.2PL0 Copyright (c) Steve Scherf et al.
# Submitted via: CDex 1.51
#
DISCID=fb0c0012
DTITLE=Various Artist - Heartbreakers - 18 Tearjerkers
DYEAR=1995
DGENRE=Easy Listening
TTITLE0=Dont Play That Song - Ben E. King
TTITLE1=Goin Out Of My Head - The Imperials
TTITLE2=I Will - Billy Fury
TTITLE3=Whats A Matter Baby (It's Hurting You) - Timi Yuro
TTITLE4=It's Just A Matter Of Time - Brook Benton
TTITLE5=Since I Don't Have You - The Skyliners
TTITLE6=Behind Closed Doors - Percy Sledge
TTITLE7=Never My Love - The Association
TTITLE8=Harbor Lights - The Platters
TTITLE9=If Loving You Is Wrong - The Drifters
TTITLE10=For The Good Times - Ray Price
TTITLE11=You'll Lose A Good Thing - Barbara Lynn
TTITLE12=What In The Worlds Come Over You - Jack Scott
TTITLE13=Teen Angel - Mark Dinning
TTITLE14=Then You Can Tell Me Goodbye - The Casinos
TTITLE15=Born A Woman - Sandy Posey
TTITLE16=I Can't Help It - B J Tomas
TTITLE17=Going Going Gone - Lee Greenwood
EXTD=YEAR: 1995
EXTT0=
EXTT1=
EXTT2=
EXTT3=
EXTT4=
EXTT5=
EXTT6=
EXTT7=
EXTT8=
EXTT9=
EXTT10=
EXTT11=
EXTT12=
EXTT13=
EXTT14=
EXTT15=
EXTT16=
EXTT17=
PLAYORDER=
